<svg width="108" height="107" viewBox="0 0 108 107" fill="none" xmlns="http://www.w3.org/2000/svg">
<path d="M59.0051 12.4705C59.0051 19.3577 53.4064 24.9411 46.5068 24.9411C39.6072 24.9411 34.0017 19.3577 34.0017 12.4705C34.0017 5.58332 39.6005 0 46.5068 0C53.4131 0 59.0051 5.58332 59.0051 12.4705Z" fill="#D9384B"/>
<path d="M38.2059 62.687C38.2059 69.5742 32.6071 75.1575 25.7008 75.1575C18.7945 75.1575 13.1957 69.5742 13.1957 62.687C13.1957 55.7997 18.7945 50.2164 25.7008 50.2164C32.6071 50.2164 38.2059 55.7997 38.2059 62.687Z" fill="#FABE00"/>
<path d="M95.7426 24.9344C95.7426 31.8216 90.1438 37.4049 83.2442 37.4049C76.3446 37.4049 70.7391 31.8216 70.7391 24.9344C70.7391 18.0472 76.3312 12.4638 83.2442 12.4638C90.1572 12.4638 95.7426 18.0472 95.7426 24.9344Z" fill="#00A0DA"/>
<path d="M32.0103 34.7302C32.0103 39.344 28.2555 43.0885 23.6289 43.0885C19.0024 43.0885 15.2475 39.344 15.2475 34.7302C15.2475 30.1165 19.0024 26.372 23.6289 26.372C28.2555 26.372 32.0103 30.1165 32.0103 34.7302Z" fill="#FABE00"/>
<path d="M50.3354 90.3896C50.3354 95.01 46.5805 98.7478 41.954 98.7478C37.3274 98.7478 33.5726 95.01 33.5726 90.3896C33.5726 85.7691 37.3274 82.0313 41.954 82.0313C46.5805 82.0313 50.3354 85.7758 50.3354 90.3896Z" fill="#D9384B"/>
<path d="M62.3778 40.6613C62.3778 45.275 58.6229 49.0195 53.9964 49.0195C49.3699 49.0195 45.615 45.275 45.615 40.6613C45.615 36.0475 49.3632 32.303 53.9964 32.303C58.6296 32.303 62.3778 36.0475 62.3778 40.6613Z" fill="#D9384B"/>
<path d="M68.7343 97.2969C68.7343 101.917 64.9795 105.655 60.3529 105.655C55.7264 105.655 51.9715 101.911 51.9715 97.2969C51.9715 92.6831 55.7197 88.9386 60.3529 88.9386C64.9862 88.9386 68.7343 92.6831 68.7343 97.2969Z" fill="#FABE00"/>
<path d="M107.778 53.1385C107.778 57.7589 104.023 61.4967 99.3969 61.4967C94.7703 61.4967 91.0154 57.7522 91.0154 53.1385C91.0154 48.5247 94.7703 44.7802 99.3969 44.7802C104.023 44.7802 107.778 48.5247 107.778 53.1385Z" fill="#FABE00"/>
<path d="M34.565 17.5724C34.565 22.1862 30.8168 25.9307 26.1835 25.9307C21.5503 25.9307 17.8021 22.1862 17.8021 17.5724C17.8021 12.9586 21.5503 9.21414 26.1835 9.21414C30.8168 9.21414 34.565 12.9586 34.565 17.5724Z" fill="#00A0DA"/>
<path d="M75.7747 10.5849C75.7747 15.1987 72.0198 18.9432 67.3933 18.9432C62.7667 18.9432 59.0118 15.1987 59.0118 10.5849C59.0118 5.97115 62.7667 2.22665 67.3933 2.22665C72.0198 2.22665 75.7747 5.97115 75.7747 10.5849Z" fill="#FABE00"/>
<path d="M41.0354 39.2303C41.0354 41.7178 39.0172 43.7304 36.5229 43.7304C34.0286 43.7304 32.0103 41.7178 32.0103 39.2303C32.0103 36.7429 34.0286 34.7303 36.5229 34.7303C39.0172 34.7303 41.0354 36.7429 41.0354 39.2303Z" fill="#D9384B"/>
<path d="M48.3104 32.303C48.3104 34.7904 46.2922 36.8031 43.7979 36.8031C41.3036 36.8031 39.2853 34.7904 39.2853 32.303C39.2853 29.8156 41.3036 27.8029 43.7979 27.8029C46.2922 27.8029 48.3104 29.8223 48.3104 32.303Z" fill="#FABE00"/>
<path d="M39.929 27.8029C39.929 30.2903 37.9041 32.303 35.4165 32.303C32.9289 32.303 30.9039 30.2836 30.9039 27.8029C30.9039 25.3222 32.9222 23.3028 35.4165 23.3028C37.9108 23.3028 39.929 25.3222 39.929 27.8029Z" fill="#00A0DA"/>
<path d="M98.6057 40.6613C98.6057 43.1487 96.5807 45.1614 94.0931 45.1614C91.6055 45.1614 89.5806 43.1487 89.5806 40.6613C89.5806 38.1739 91.5988 36.1612 94.0931 36.1612C96.5874 36.1612 98.6057 38.1739 98.6057 40.6613Z" fill="#D9384B"/>
<path d="M41.4981 49.0262C41.4981 51.5136 39.4731 53.5263 36.9855 53.5263C34.4979 53.5263 32.473 51.5069 32.473 49.0262C32.473 46.5455 34.4912 44.5261 36.9855 44.5261C39.4798 44.5261 41.4981 46.5455 41.4981 49.0262Z" fill="#00A0DA"/>
<path d="M20.0819 46.4051C20.0819 48.8925 18.0636 50.9051 15.5693 50.9051C13.075 50.9051 11.0568 48.8925 11.0568 46.4051C11.0568 43.9176 13.075 41.905 15.5693 41.905C18.0636 41.905 20.0819 43.9243 20.0819 46.4051Z" fill="#D9384B"/>
<path d="M9.02511 56.6891C9.02511 59.1765 7.00686 61.1892 4.51255 61.1892C2.01824 61.1892 0 59.1765 0 56.6891C0 54.2017 2.02495 52.189 4.51255 52.189C7.00016 52.189 9.02511 54.2083 9.02511 56.6891Z" fill="#D9384B"/>
<path d="M103.909 32.4501C103.909 34.9375 101.884 36.9502 99.3969 36.9502C96.9093 36.9502 94.8843 34.9308 94.8843 32.4501C94.8843 29.9694 96.9093 27.95 99.3969 27.95C101.884 27.95 103.909 29.9627 103.909 32.4501Z" fill="#00A0DA"/>
<path d="M71.3828 32.303C71.3828 34.7904 69.3579 36.8031 66.8703 36.8031C64.3827 36.8031 62.3577 34.7904 62.3577 32.303C62.3577 29.8156 64.376 27.8029 66.8703 27.8029C69.3646 27.8029 71.3828 29.8223 71.3828 32.303Z" fill="#00A0DA"/>
<path d="M64.8654 23.4499C64.8654 25.9374 62.8472 27.95 60.3529 27.95C57.8586 27.95 55.8403 25.9374 55.8403 23.4499C55.8403 20.9625 57.8653 18.9499 60.3529 18.9499C62.8405 18.9499 64.8654 20.9625 64.8654 23.4499Z" fill="#FABE00"/>
<path d="M91.0155 53.0515C91.0155 55.539 88.9972 57.5516 86.5029 57.5516C84.0086 57.5516 81.9904 55.539 81.9904 53.0515C81.9904 50.5641 84.0086 48.5515 86.5029 48.5515C88.9972 48.5515 91.0155 50.5641 91.0155 53.0515Z" fill="#D9384B"/>
<path d="M100.255 65.6892C100.255 68.1767 98.2369 70.1893 95.7426 70.1893C93.2483 70.1893 91.23 68.1767 91.23 65.6892C91.23 63.2018 93.2483 61.1891 95.7426 61.1891C98.2369 61.1891 100.255 63.2018 100.255 65.6892Z" fill="#D9384B"/>
<path d="M100.986 76.4814C100.986 78.9689 98.961 80.9815 96.4734 80.9815C93.9858 80.9815 91.9609 78.9622 91.9609 76.4814C91.9609 74.0007 93.9791 71.9814 96.4734 71.9814C98.9677 71.9814 100.986 73.994 100.986 76.4814Z" fill="#00A0DA"/>
<path d="M91.7396 88.2566C91.7396 89.7009 90.5662 90.871 89.1179 90.871C87.6696 90.871 86.4962 89.7009 86.4962 88.2566C86.4962 86.8122 87.6696 85.6421 89.1179 85.6421C90.5662 85.6421 91.7396 86.8122 91.7396 88.2566Z" fill="#FABE00"/>
<path d="M95.4006 83.596C95.4006 85.0403 94.2272 86.2104 92.7789 86.2104C91.3306 86.2104 90.1572 85.0403 90.1572 83.596C90.1572 82.1517 91.3306 80.9815 92.7789 80.9815C94.2272 80.9815 95.4006 82.1517 95.4006 83.596Z" fill="#FABE00"/>
<path d="M89.1246 40.0327C89.1246 41.477 87.9512 42.6472 86.5029 42.6472C85.0546 42.6472 83.8812 41.477 83.8812 40.0327C83.8812 38.5884 85.0546 37.4183 86.5029 37.4183C87.9512 37.4183 89.1246 38.5884 89.1246 40.0327Z" fill="#FABE00"/>
<path d="M104.64 69.8684C104.64 71.3127 103.467 72.4828 102.019 72.4828C100.57 72.4828 99.3969 71.3127 99.3969 69.8684C99.3969 68.4241 100.57 67.2539 102.019 67.2539C103.467 67.2539 104.64 68.4241 104.64 69.8684Z" fill="#00A0DA"/>
<path d="M83.1503 92.1615C83.1503 93.6058 81.9769 94.776 80.5286 94.776C79.0803 94.776 77.9069 93.6058 77.9069 92.1615C77.9069 90.7172 79.0803 89.5471 80.5286 89.5471C81.9769 89.5471 83.1503 90.7172 83.1503 92.1615Z" fill="#00A0DA"/>
<path d="M58.4553 51.634C58.4553 53.0783 57.2819 54.2485 55.8336 54.2485C54.3853 54.2485 53.2119 53.0783 53.2119 51.634C53.2119 50.1897 54.3853 49.0195 55.8336 49.0195C57.2819 49.0195 58.4553 50.1897 58.4553 51.634Z" fill="#FABE00"/>
<path d="M104.64 40.0327C104.64 41.477 103.467 42.6472 102.019 42.6472C100.57 42.6472 99.3969 41.477 99.3969 40.0327C99.3969 38.5884 100.57 37.4183 102.019 37.4183C103.467 37.4183 104.64 38.5884 104.64 40.0327Z" fill="#00A0DA"/>
<path d="M84.6053 47.1339C84.6053 48.5782 83.432 49.7484 81.9836 49.7484C80.5353 49.7484 79.3619 48.5782 79.3619 47.1339C79.3619 45.6896 80.5353 44.5194 81.9836 44.5194C83.432 44.5194 84.6053 45.6896 84.6053 47.1339Z" fill="#00A0DA"/>
<path d="M61.7811 56.3146C61.7811 57.7589 60.6077 58.9291 59.1594 58.9291C57.7111 58.9291 56.5377 57.7589 56.5377 56.3146C56.5377 54.8703 57.7111 53.7002 59.1594 53.7002C60.6077 53.7002 61.7811 54.8703 61.7811 56.3146Z" fill="#00A0DA"/>
<path d="M70.7324 22.3266C70.7324 23.7709 69.559 24.9411 68.1174 24.9411C66.6758 24.9411 65.4957 23.7709 65.4957 22.3266C65.4957 20.8823 66.6691 19.7121 68.1174 19.7121C69.5657 19.7121 70.7324 20.8823 70.7324 22.3266Z" fill="#00A0DA"/>
<path d="M51.9782 27.5488C51.9782 28.9931 50.8048 30.1633 49.3565 30.1633C47.9082 30.1633 46.7348 28.9931 46.7348 27.5488C46.7348 26.1045 47.9082 24.9344 49.3565 24.9344C50.8048 24.9344 51.9782 26.1045 51.9782 27.5488Z" fill="#00A0DA"/>
<path d="M45.6955 42.6472C45.6955 44.0915 44.5221 45.2616 43.0738 45.2616C41.6255 45.2616 40.4521 44.0915 40.4521 42.6472C40.4521 41.2029 41.6255 40.0327 43.0738 40.0327C44.5221 40.0327 45.6955 41.2029 45.6955 42.6472Z" fill="#00A0DA"/>
<path d="M8.85749 36.6159C8.85749 38.0602 7.68409 39.2303 6.23578 39.2303C4.78747 39.2303 3.61407 38.0602 3.61407 36.6159C3.61407 35.1716 4.78747 34.0014 6.23578 34.0014C7.68409 34.0014 8.85749 35.1716 8.85749 36.6159Z" fill="#FABE00"/>
<path d="M17.8692 23.4499C17.8692 24.8943 16.6958 26.0644 15.2475 26.0644C13.7992 26.0644 12.6258 24.8943 12.6258 23.4499C12.6258 22.0056 13.7992 20.8355 15.2475 20.8355C16.6958 20.8355 17.8692 22.0056 17.8692 23.4499Z" fill="#00A0DA"/>
<path d="M13.6718 40.0327C13.6718 41.477 12.4984 42.6472 11.0568 42.6472C9.61516 42.6472 8.43506 41.477 8.43506 40.0327C8.43506 38.5884 9.60846 37.4183 11.0568 37.4183C12.5051 37.4183 13.6718 38.5884 13.6718 40.0327Z" fill="#FABE00"/>
<path d="M47.5863 49.0262C47.5863 50.4705 46.4129 51.6407 44.9646 51.6407C43.5163 51.6407 42.3429 50.4705 42.3429 49.0262C42.3429 47.5819 43.5163 46.4117 44.9646 46.4117C46.4129 46.4117 47.5863 47.5819 47.5863 49.0262Z" fill="#FABE00"/>
<path d="M13.1957 60.6743C13.1957 62.1186 12.0223 63.2887 10.574 63.2887C9.12567 63.2887 7.95227 62.1186 7.95227 60.6743C7.95227 59.23 9.12567 58.0598 10.574 58.0598C12.0223 58.0598 13.1957 59.23 13.1957 60.6743Z" fill="#FABE00"/>
<path d="M44.113 79.0959C44.113 80.5402 42.9396 81.7104 41.4913 81.7104C40.043 81.7104 38.8696 80.5402 38.8696 79.0959C38.8696 77.6516 40.043 76.4814 41.4913 76.4814C42.9396 76.4814 44.113 77.6516 44.113 79.0959Z" fill="#00A0DA"/>
<path d="M49.3565 76.4814C49.3565 77.9257 48.1831 79.0959 46.7348 79.0959C45.2865 79.0959 44.1131 77.9257 44.1131 76.4814C44.1131 75.0371 45.2865 73.867 46.7348 73.867C48.1831 73.867 49.3565 75.0371 49.3565 76.4814Z" fill="#00A0DA"/>
<path d="M26.2506 47.1339C26.2506 48.5782 25.0772 49.7484 23.6289 49.7484C22.1806 49.7484 21.0072 48.5782 21.0072 47.1339C21.0072 45.6896 22.1806 44.5194 23.6289 44.5194C25.0772 44.5194 26.2506 45.6896 26.2506 47.1339Z" fill="#00A0DA"/>
<path d="M14.2685 53.8005C14.2685 55.2448 13.0951 56.4149 11.6468 56.4149C10.1985 56.4149 9.02509 55.2448 9.02509 53.8005C9.02509 52.3562 10.1985 51.186 11.6468 51.186C13.0951 51.186 14.2685 52.3562 14.2685 53.8005Z" fill="#00A0DA"/>
<path d="M32.768 44.5194C32.768 45.9637 31.5946 47.1339 30.1463 47.1339C28.698 47.1339 27.5246 45.9637 27.5246 44.5194C27.5246 43.0751 28.698 41.905 30.1463 41.905C31.5946 41.905 32.768 43.0751 32.768 44.5194Z" fill="#D9384B"/>
<path d="M64.0273 51.0924C64.0273 52.5367 62.8539 53.7068 61.4056 53.7068C59.9573 53.7068 58.7839 52.5367 58.7839 51.0924C58.7839 49.6481 59.9573 48.4779 61.4056 48.4779C62.8539 48.4779 64.0273 49.6481 64.0273 51.0924Z" fill="#D9384B"/>
<path d="M57.3423 29.187C57.3423 30.6313 56.1689 31.8015 54.7206 31.8015C53.2723 31.8015 52.0989 30.6313 52.0989 29.187C52.0989 27.7427 53.2723 26.5726 54.7206 26.5726C56.1689 26.5726 57.3423 27.7427 57.3423 29.187Z" fill="#D9384B"/>
<path d="M51.5021 71.2525C51.5021 72.6968 50.3287 73.867 48.8804 73.867C47.4321 73.867 46.2587 72.6968 46.2587 71.2525C46.2587 69.8082 47.4321 68.638 48.8804 68.638C50.3287 68.638 51.5021 69.8082 51.5021 71.2525Z" fill="#D9384B"/>
<path d="M88.6619 92.9439C88.6619 94.3882 87.4885 95.5583 86.0402 95.5583C84.5919 95.5583 83.4185 94.3882 83.4185 92.9439C83.4185 91.4996 84.5919 90.3294 86.0402 90.3294C87.4885 90.3294 88.6619 91.4996 88.6619 92.9439Z" fill="#D9384B"/>
<path d="M83.5862 40.0327C83.5862 41.477 82.4128 42.6472 80.9645 42.6472C79.5162 42.6472 78.3428 41.477 78.3428 40.0327C78.3428 38.5884 79.5162 37.4183 80.9645 37.4183C82.4128 37.4183 83.5862 38.5884 83.5862 40.0327Z" fill="#D9384B"/>
<path d="M90.5126 45.937C90.5126 47.3813 89.3392 48.5515 87.8909 48.5515C86.4426 48.5515 85.2692 47.3813 85.2692 45.937C85.2692 44.4927 86.4426 43.3225 87.8909 43.3225C89.3392 43.3225 90.5126 44.4927 90.5126 45.937Z" fill="#D9384B"/>
<path d="M78.2355 95.6653C78.2355 98.1527 76.2172 100.165 73.7229 100.165C71.2286 100.165 69.2104 98.1527 69.2104 95.6653C69.2104 93.1779 71.2353 91.1652 73.7229 91.1652C76.2105 91.1652 78.2355 93.1779 78.2355 95.6653Z" fill="#FABE00"/>
<path d="M45.6083 71.2592C45.6083 73.7466 43.5901 75.7593 41.0957 75.7593C38.6014 75.7593 36.5832 73.7466 36.5832 71.2592C36.5832 68.7718 38.6014 66.7591 41.0957 66.7591C43.5901 66.7591 45.6083 68.7718 45.6083 71.2592Z" fill="#FABE00"/>
<path d="M15.5693 76.4814C15.5693 78.9689 13.5511 80.9815 11.0567 80.9815C8.56243 80.9815 6.54419 78.9622 6.54419 76.4814C6.54419 74.0007 8.56243 71.9814 11.0567 71.9814C13.5511 71.9814 15.5693 73.994 15.5693 76.4814Z" fill="#D9384B"/>
<path d="M56.6114 81.6903C56.6114 84.1777 54.5932 86.1904 52.0989 86.1904C49.6045 86.1904 47.5863 84.1777 47.5863 81.6903C47.5863 79.2029 49.6113 77.1902 52.0989 77.1902C54.5865 77.1902 56.6114 79.2029 56.6114 81.6903Z" fill="#D9384B"/>
<path d="M38.5143 78.0996C38.5143 80.587 36.4961 82.5997 34.0018 82.5997C31.5074 82.5997 29.4892 80.5803 29.4892 78.0996C29.4892 75.6188 31.5074 73.5995 34.0018 73.5995C36.4961 73.5995 38.5143 75.6122 38.5143 78.0996Z" fill="#D9384B"/>
<path d="M34.0017 96.0732C34.0017 98.5606 31.9835 100.573 29.4892 100.573C26.9949 100.573 24.9766 98.5606 24.9766 96.0732C24.9766 93.5858 26.9949 91.5731 29.4892 91.5731C31.9835 91.5731 34.0017 93.5925 34.0017 96.0732Z" fill="#00A0DA"/>
<path d="M52.0989 102.312C52.0989 104.799 50.074 106.812 47.5863 106.812C45.0987 106.812 43.0738 104.799 43.0738 102.312C43.0738 99.8244 45.092 97.8117 47.5863 97.8117C50.0807 97.8117 52.0989 99.8311 52.0989 102.312Z" fill="#D9384B"/>
<path d="M9.89681 45.937C9.89681 48.4244 7.87856 50.4371 5.38426 50.4371C2.88995 50.4371 0.871704 48.4244 0.871704 45.937C0.871704 43.4496 2.88995 41.4369 5.38426 41.4369C7.87856 41.4369 9.89681 43.4496 9.89681 45.937Z" fill="#00A0DA"/>
<path d="M11.0568 66.9664C11.0568 69.4538 9.03183 71.4665 6.54423 71.4665C4.05663 71.4665 2.03168 69.4471 2.03168 66.9664C2.03168 64.4857 4.04992 62.4663 6.54423 62.4663C9.03854 62.4663 11.0568 64.479 11.0568 66.9664Z" fill="#00A0DA"/>
<path d="M15.2475 30.5778C15.2475 33.0586 13.2225 35.0779 10.7349 35.0779C8.2473 35.0779 6.22235 33.0586 6.22235 30.5778C6.22235 28.0971 8.24059 26.0778 10.7349 26.0778C13.2292 26.0778 15.2475 28.0904 15.2475 30.5778Z" fill="#00A0DA"/>
<path d="M56.6919 59.8318C56.6919 64.4455 52.937 68.19 48.3105 68.19C43.684 68.19 39.9291 64.4455 39.9291 59.8318C39.9291 55.218 43.684 51.4735 48.3105 51.4735C52.937 51.4735 56.6919 55.218 56.6919 59.8318Z" fill="#00A0DA"/>
<path d="M30.5955 84.5856C30.5955 89.1994 26.8474 92.9439 22.2141 92.9439C17.5809 92.9439 13.8327 89.1994 13.8327 84.5856C13.8327 79.9719 17.5809 76.2274 22.2141 76.2274C26.8474 76.2274 30.5955 79.9719 30.5955 84.5856Z" fill="#FABE00"/>
<path d="M79.1206 44.9741C79.1206 49.5879 75.3657 53.3324 70.7391 53.3324C66.1126 53.3324 62.3577 49.5879 62.3577 44.9741C62.3577 40.3604 66.1059 36.6159 70.7391 36.6159C75.3724 36.6159 79.1206 40.3604 79.1206 44.9741Z" fill="#FABE00"/>
<path d="M91.9609 71.9814C91.9609 82.145 83.7001 90.3896 73.5016 90.3896C63.3031 90.3896 55.0424 82.1517 55.0424 71.9814C55.0424 61.811 63.3031 53.5731 73.5016 53.5731C83.7001 53.5731 91.9609 61.811 91.9609 71.9814Z" fill="#00A0DA"/>
</svg>
